<?xml version="1.0" standalone="no"?><!DOCTYPE svg PUBLIC "-//W3C//DTD SVG 1.1//EN" "http://www.w3.org/Graphics/SVG/1.1/DTD/svg11.dtd"><svg t="1720334900034" class="icon" viewBox="0 0 2365 1024" version="1.1" xmlns="http://www.w3.org/2000/svg" p-id="57055" xmlns:xlink="http://www.w3.org/1999/xlink" width="295.625" height="128"><path d="M2082.4064 796.2624h-232.6528l-55.7056-671.744c-3.2768-31.1296-31.1296-54.0672-62.2592-52.4288-8.192 0-196.608 16.384-309.6576 52.4288-127.7952 40.96-139.264 273.6128-140.9024 552.1408 0 42.5984 0 91.7504-3.2768 108.1344-4.9152 8.192-11.4688 9.8304-14.7456 9.8304H987.9552L927.3344 124.5184c-1.6384-14.7456-8.192-29.4912-21.2992-39.3216-11.4688-9.8304-27.8528-14.7456-42.5984-11.4688-8.192 0-191.6928 22.9376-304.7424 50.7904-135.9872 32.768-145.8176 270.336-145.8176 553.7792 0 42.5984 0 91.7504-1.6384 108.1344-4.9152 8.192-11.4688 8.192-14.7456 9.8304H111.4112c-31.1296 0-57.344 26.2144-57.344 57.344s26.2144 57.344 57.344 57.344h283.4432c32.768 0 95.0272-18.0224 122.88-81.92 9.8304-22.9376 9.8304-54.0672 9.8304-149.0944 0-85.1968 0-203.1616 11.4688-298.1888 16.384-127.7952 45.8752-144.1792 45.8752-144.1792 68.8128-16.384 168.7552-32.768 232.6528-40.96l58.9824 661.9136v8.192c0 3.2768 1.6384 4.9152 1.6384 6.5536 0 1.6384 0 1.6384 1.6384 3.2768 1.6384 3.2768 3.2768 4.9152 4.9152 8.192v1.6384c1.6384 3.2768 4.9152 4.9152 6.5536 8.192 9.8304 9.8304 24.576 16.384 40.96 16.384H1258.2912c32.768 0 95.0272-18.0224 122.88-81.92 9.8304-21.2992 9.8304-54.0672 9.8304-149.0944 0-85.1968 1.6384-199.8848 13.1072-294.912 18.0224-132.7104 47.5136-147.456 47.5136-147.456 65.536-21.2992 165.4784-34.4064 229.376-42.5984l58.9824 663.552c0 1.6384 0 3.2768 1.6384 4.9152 0 1.6384 0 3.2768 1.6384 4.9152 0 1.6384 1.6384 3.2768 1.6384 4.9152 0 1.6384 1.6384 3.2768 1.6384 4.9152 0 1.6384 1.6384 3.2768 3.2768 4.9152 1.6384 1.6384 1.6384 3.2768 3.2768 4.9152l4.9152 4.9152 1.6384 1.6384 6.5536 6.5536h1.6384c9.8304 6.5536 19.6608 9.8304 31.1296 9.8304h283.4432c31.1296 0 57.344-26.2144 57.344-57.344-1.6384-31.1296-26.2144-57.344-57.344-57.344z" fill="#ffffff" p-id="57056"></path></svg>