<?xml version="1.0" standalone="no"?><!DOCTYPE svg PUBLIC "-//W3C//DTD SVG 1.1//EN" "http://www.w3.org/Graphics/SVG/1.1/DTD/svg11.dtd"><svg t="1720339059263" class="icon" viewBox="0 0 1024 1024" version="1.1" xmlns="http://www.w3.org/2000/svg" p-id="67076" xmlns:xlink="http://www.w3.org/1999/xlink" width="128" height="128"><path d="M679.595 411.633c-9.469 9.469-9.469 24.618 0 33.14 36.929 36.929 36.929 96.58 0 133.507-9.469 9.469-9.469 24.618 0 33.14 4.734 4.734 10.415 6.627 17.044 6.627s12.309-1.894 17.044-6.627c54.918-54.918 54.918-144.871 0-199.788-10.415-9.469-25.566-9.469-34.085 0z" fill="#2c2c2c" p-id="67077"></path><path d="M797.006 331.149c-9.469-9.469-24.618-9.469-33.14 0-9.469 9.469-9.469 24.618 0 33.14 39.769 39.769 61.547 91.846 61.547 147.711s-21.778 107.942-61.547 147.711c-9.469 9.469-9.469 24.618 0 33.14 4.734 4.734 10.415 6.627 17.044 6.627s12.309-1.894 17.044-6.627c47.343-48.291 73.854-112.677 73.854-180.851s-26.511-132.561-74.802-180.851z" fill="#2c2c2c" p-id="67078"></path><path d="M879.382 244.985c-9.469-9.469-24.618-9.469-33.14 0-9.469 9.469-9.469 24.618 0 33.14 128.773 128.773 128.773 338.030 0 466.803-9.469 9.469-9.469 24.618 0 33.14 4.734 4.734 10.415 6.627 17.044 6.627s12.309-1.894 17.044-6.627c146.763-146.763 146.763-385.372-0.946-533.083zM482.647 173.023c-33.14-13.257-69.121-6.627-93.738 17.989l-181.796 178.957h-32.193c-77.642 0-142.029 63.44-142.029 142.029s63.44 142.029 142.029 142.029h32.193l181.796 178.010c17.044 16.096 37.873 25.566 60.599 25.566 11.362 0 22.723-1.894 34.085-6.627 33.14-13.257 53.025-44.503 53.025-79.536v-518.881c-0.946-35.034-21.778-65.334-53.97-79.536zM81.177 512c0-52.078 42.609-94.686 94.686-94.686h17.989v188.427h-17.989c-52.078 0-94.686-41.663-94.686-93.738zM488.329 770.493c0 16.096-8.522 29.353-23.671 35.98s-31.246 2.839-42.609-8.522l-180.851-178.010v-215.886l180.851-178.957c11.362-11.362 27.458-14.202 42.609-8.522 15.15 6.627 23.671 19.884 23.671 35.98v517.934z" fill="#2c2c2c" p-id="67079"></path></svg>