<?xml version="1.0" standalone="no"?><!DOCTYPE svg PUBLIC "-//W3C//DTD SVG 1.1//EN" "http://www.w3.org/Graphics/SVG/1.1/DTD/svg11.dtd"><svg t="1720439070623" class="icon" viewBox="0 0 1024 1024" version="1.1" xmlns="http://www.w3.org/2000/svg" p-id="138037" xmlns:xlink="http://www.w3.org/1999/xlink" width="48" height="48"><path d="M522.8032 506.88m-224.1024 0a224.1024 224.1024 0 1 0 448.2048 0 224.1024 224.1024 0 1 0-448.2048 0Z" fill="#FFE7CC" p-id="138038" data-spm-anchor-id="a313x.search_index.0.i152.43063a81apSnxx" class="selected"></path><path d="M522.8032 761.7024c-140.4928 0-254.8224-114.3296-254.8224-254.8224 0-140.4928 114.3296-254.8224 254.8224-254.8224 140.4928 0 254.8224 114.3296 254.8224 254.8224 0 140.4928-114.3296 254.8224-254.8224 254.8224z m0-448.2048c-106.5984 0-193.3824 86.7328-193.3824 193.3824s86.7328 193.3824 193.3824 193.3824 193.3824-86.7328 193.3824-193.3824-86.7328-193.3824-193.3824-193.3824zM517.12 193.2288c-16.9472 0-30.72-13.7728-30.72-30.72V88.0128c0-16.9472 13.7728-30.72 30.72-30.72s30.72 13.7728 30.72 30.72v74.496c0 16.9984-13.7728 30.72-30.72 30.72zM517.12 964.864c-16.9472 0-30.72-13.7728-30.72-30.72V859.648c0-16.9472 13.7728-30.72 30.72-30.72s30.72 13.7728 30.72 30.72v74.496c0 16.9472-13.7728 30.72-30.72 30.72zM270.6432 295.3216c-7.8848 0-15.7184-3.0208-21.7088-9.0112L196.2496 233.6768c-11.9808-11.9808-11.9808-31.4368 0-43.4688 11.9808-11.9808 31.4368-11.9808 43.4688 0l52.6848 52.6848c11.9808 11.9808 11.9808 31.4368 0 43.4688a30.65344 30.65344 0 0 1-21.76 8.96zM816.2816 840.96c-7.8848 0-15.7184-3.0208-21.7088-9.0112L741.888 779.264c-11.9808-11.9808-11.9808-31.4368 0-43.4688 11.9808-11.9808 31.4368-11.9808 43.4688 0L837.9904 788.48c11.9808 11.9808 11.9808 31.4368 0 43.4688a30.67392 30.67392 0 0 1-21.7088 9.0112zM168.6016 541.7984H94.0544c-16.9472 0-30.72-13.7728-30.72-30.72s13.7728-30.72 30.72-30.72h74.496c16.9472 0 30.72 13.7728 30.72 30.72s-13.7216 30.72-30.6688 30.72zM940.1856 541.7984h-74.496c-16.9472 0-30.72-13.7728-30.72-30.72s13.7728-30.72 30.72-30.72h74.496c16.9472 0 30.72 13.7728 30.72 30.72s-13.7728 30.72-30.72 30.72zM217.9584 840.96c-7.8848 0-15.7184-3.0208-21.7088-9.0112-11.9808-11.9808-11.9808-31.4368 0-43.4688l52.6848-52.6848c11.9808-11.9808 31.4368-11.9808 43.4688 0 11.9808 11.9808 11.9808 31.4368 0 43.4688l-52.6848 52.6848a30.79168 30.79168 0 0 1-21.76 9.0112zM763.5968 295.3216c-7.8848 0-15.7184-3.0208-21.7088-9.0112-11.9808-11.9808-11.9808-31.4368 0-43.4688l52.6848-52.6848c11.9808-11.9808 31.4368-11.9808 43.4688 0 11.9808 11.9808 11.9808 31.4368 0 43.4688l-52.6848 52.6848a30.6688 30.6688 0 0 1-21.76 9.0112z" fill="#474A54" p-id="138039" data-spm-anchor-id="a313x.search_index.0.i151.43063a81apSnxx" class=""></path></svg>