<?xml version="1.0" standalone="no"?><!DOCTYPE svg PUBLIC "-//W3C//DTD SVG 1.1//EN" "http://www.w3.org/Graphics/SVG/1.1/DTD/svg11.dtd"><svg t="1720333382001" class="icon" viewBox="0 0 1024 1024" version="1.1" xmlns="http://www.w3.org/2000/svg" p-id="18456" xmlns:xlink="http://www.w3.org/1999/xlink" width="128" height="128"><path d="M677.888 494.592q0 28.672-10.752 53.76t-29.184 43.52-43.008 29.184-53.248 10.752-53.248-10.752-43.008-29.184-29.184-43.52-10.752-53.76q0-27.648 10.752-52.736t29.184-43.52 43.008-29.184 53.248-10.752 53.248 10.752 43.008 29.184 29.184 43.52 10.752 52.736zM171.008 766.976q-28.672 0-51.2-5.12t-37.888-17.408-23.552-33.28-8.192-52.736l0-346.112q0-57.344 27.136-79.872t85.504-22.528l172.032 0q16.384 0 27.136-6.144t17.408-16.384 11.776-24.064 11.264-28.16q10.24-26.624 35.84-46.08t58.368-19.456l95.232 0q37.888 0 61.952 20.992t32.256 44.544q11.264 30.72 29.696 52.736t38.912 22.016l130.048 0q45.056-1.024 71.68 24.576t26.624 74.752l0 351.232q0 52.224-27.648 79.36t-73.728 27.136l-710.656 0zM539.648 280.576q-45.056 0-83.968 16.896t-67.584 46.08-45.568 68.096-16.896 82.944q0 45.056 16.896 83.968t45.568 67.584 67.584 45.568 83.968 16.896q44.032 0 82.944-16.896t67.584-45.568 45.568-67.584 16.896-83.968q0-44.032-16.896-82.944t-45.568-68.096-67.584-46.08-82.944-16.896zM611.328 169.984q0-16.384-1.536-25.6t-20.992-9.216l-84.992 0q-19.456-1.024-20.992 8.192t-1.536 26.624q-1.024 19.456 2.048 27.648t20.48 8.192l84.992 0q19.456 0 20.992-9.216t1.536-26.624z" p-id="18457" fill="#ffffff"></path></svg>