<?xml version="1.0" standalone="no"?><!DOCTYPE svg PUBLIC "-//W3C//DTD SVG 1.1//EN" "http://www.w3.org/Graphics/SVG/1.1/DTD/svg11.dtd"><svg t="1720424396756" class="icon" viewBox="0 0 1024 1024" version="1.1" xmlns="http://www.w3.org/2000/svg" p-id="124581" xmlns:xlink="http://www.w3.org/1999/xlink" width="48" height="48"><path d="M746.6496 198.4a129.6384 129.6384 0 0 1 129.536 124.0064l0.1024 5.632v367.9232a129.6384 129.6384 0 0 1-124.0064 129.536l-5.632 0.1024H306.9184a129.6384 129.6384 0 0 1-129.536-124.0064l-0.128-5.632v-57.9328c0-7.4752 2.6368-14.6944 7.3728-20.4032l2.5344-2.7136 131.84-126.0544a32 32 0 0 1 35.4304-5.9648l3.1488 1.664 116.0704 69.5808 74.7008-66.0992a32 32 0 0 1 35.072-4.864l3.072 1.6896 177.1008 110.6688a32 32 0 0 1-30.848 55.9616l-3.072-1.6896-156.8256-97.9968-74.3424 65.792a32 32 0 0 1-34.6112 5.12l-3.072-1.6384-115.2512-69.0944-104.32 99.712v44.2624a65.6384 65.6384 0 0 0 61.4912 65.5104l4.1728 0.128h439.7312a65.6384 65.6384 0 0 0 65.5104-61.4912l0.128-4.1472V328.0384a65.6384 65.6384 0 0 0-61.4912-65.5104l-4.1472-0.128H306.9184a65.6384 65.6384 0 0 0-65.536 61.4912l-0.128 4.1472v134.3488a32 32 0 0 1-63.8208 3.2768l-0.1792-3.2768v-134.3488a129.6384 129.6384 0 0 1 124.032-129.536l5.632-0.1024h439.7312z" fill="#FB553C" p-id="124582"></path><path d="M692.5312 398.3104m-47.4112 0a47.4112 47.4112 0 1 0 94.8224 0 47.4112 47.4112 0 1 0-94.8224 0Z" fill="#FB553C" p-id="124583"></path></svg>