<?xml version="1.0" standalone="no"?><!DOCTYPE svg PUBLIC "-//W3C//DTD SVG 1.1//EN" "http://www.w3.org/Graphics/SVG/1.1/DTD/svg11.dtd"><svg t="1720698926844" class="icon" viewBox="0 0 1024 1024" version="1.1" xmlns="http://www.w3.org/2000/svg" p-id="157766" xmlns:xlink="http://www.w3.org/1999/xlink" width="128" height="128"><path d="M509.5 198c-141.4 0-256 114.6-256 256 0 80 94 187 94 187l13 99c0 22.1 11.1 45 33.2 45h226.7c22.1 0 34.2-17.9 34.2-40l18-94s93-109 93-197c-0.1-141.4-114.7-256-256.1-256z m131.4 426.5C627.5 659 615.5 745 615.5 745h-214s-4-73-15.6-115c-15.4-27-96.4-106.3-96.4-182 0-121.5 98.5-220 220-220s220 98.5 220 220c0 72.2-69.2 147.9-88.6 176.5z" fill="#012FFF" p-id="157767"></path><path d="M509.5 266c-65 0-121.9 34.5-153.6 86.1-2.1 2.7-3.4 6.1-3.4 9.9 0 8.8 7.2 16 16 16 5.4 0 10.2-2.7 13.1-6.8l0.1 0.1C407.4 327.4 455 298 509.5 298c8.8 0 16-7.2 16-16s-7.2-16-16-16z m16-220c0-8.8-7.2-16-16-16s-16 7.2-16 16v112h32V46zM282.4 257.6L305 235l-79.2-79.2c-6.2-6.2-16.4-6.2-22.6 0-6.2 6.2-6.2 16.4 0 22.6l79.2 79.2zM213.5 426h-112c-8.8 0-16 7.2-16 16s7.2 16 16 16h112v-32z m-48.6 252.3c-6.2 6.2-6.2 16.4 0 22.6s16.4 6.2 22.6 0l79.2-79.2-22.6-22.6-79.2 79.2z m655.9-499.9c6.2-6.2 6.2-16.4 0-22.6-6.2-6.2-16.4-6.2-22.6 0L719 235l22.6 22.6 79.2-79.2zM922.5 426h-112v32h112c8.8 0 16-7.2 16-16s-7.2-16-16-16zM779.9 599.1l-22.6 22.6 79.2 79.2c6.2 6.2 16.4 6.2 22.6 0s6.2-16.4 0-22.6l-79.2-79.2zM627.5 807h-236c-8.8 0-16 7.2-16 16v4c0 8.8 7.2 16 16 16h236c8.8 0 16-7.2 16-16v-4c0-8.8-7.2-16-16-16z m0 56h-236c-8.8 0-16 7.2-16 16v4c0 8.8 7.2 16 16 16h236c8.8 0 16-7.2 16-16v-4c0-8.8-7.2-16-16-16zM449.2 994h121.6c19.1-18.7 51.7-43.9 54.2-72H395c2.5 28.1 35.1 53.3 54.2 72z" fill="#012FFF" p-id="157768"></path></svg>