<?xml version="1.0" standalone="no"?><!DOCTYPE svg PUBLIC "-//W3C//DTD SVG 1.1//EN" "http://www.w3.org/Graphics/SVG/1.1/DTD/svg11.dtd"><svg t="1720352715165" class="icon" viewBox="0 0 1322 1024" version="1.1" xmlns="http://www.w3.org/2000/svg" p-id="76076" width="61.96875" height="48" xmlns:xlink="http://www.w3.org/1999/xlink"><path d="M698.88551306 397.92071557l-87.07351638 142.59910536 116.08772231 114.07928514 145.13282823-85.5594635z" fill="#2c2c2c" p-id="76077"></path><path d="M931.09185766 141.21142578c-87.07351708 0-232.20634461 256.70928979-232.2063446 256.70928979l174.14703416 171.118927s261.25144982-142.59910607 261.25144911-228.15856957c0-28.55072021-174.14703345-199.66964722-203.19213867-199.66964722" fill="#2c2c2c" p-id="76078"></path><path d="M582.55059789 512c-176.89704919 0-151.49803185 199.66964722-290.26565504 199.66964722-55.30929542 0-87.07351708-28.55072021-87.07351708-28.55072022S250.47853111 882.78857422 466.46287559 882.78857422c161.1076355 0 290.23475647-65.32058693 290.23475647-199.66964722A171.45881629 171.45881629 0 0 0 582.55059789 512" fill="#2c2c2c" p-id="76079"></path><path d="M350.56054686 797.19821143c102.33764648 0 116.11862159-85.5594635 116.1186216-85.5594635-31.17713952 31.05354309-87.07351708 28.48892236-87.07351637 28.48892236 23.97766089-23.51417518 28.5816195-85.99204993 29.47769164-107.12699866C381.08880638 674.89978051 351.76560973 711.66964722 292.28494285 711.66964722 236.97564672 711.66964722 205.21142577 683.118927 205.21142577 683.118927s37.17155456 161.6020205 202.38876367 193.70613074c36.30638099-14.36805725 59.07897973-51.0761261 59.07897902-51.07612609-71.84028625 14.21356225-116.11862159-28.55072021-116.1186216-28.55072022" fill="#2c2c2c" p-id="76080"></path></svg>