<?xml version="1.0" standalone="no"?><!DOCTYPE svg PUBLIC "-//W3C//DTD SVG 1.1//EN" "http://www.w3.org/Graphics/SVG/1.1/DTD/svg11.dtd"><svg t="1720771805335" class="icon" viewBox="0 0 1024 1024" version="1.1" xmlns="http://www.w3.org/2000/svg" p-id="199928" xmlns:xlink="http://www.w3.org/1999/xlink" width="32" height="32"><path d="M203 768a31.85 31.85 0 0 1-20.11-7.13A320 320 0 0 1 384 192h210.75l-9.38-9.37a32 32 0 0 1 45.26-45.26l64 64a32 32 0 0 1 0 45.26l-64 64a32 32 0 0 1-45.26-45.26l9.38-9.37H384c-141.16 0-256 114.84-256 256a255.07 255.07 0 0 0 95.13 199.15A32 32 0 0 1 203 768z m235.63 118.63a32 32 0 0 0 0-45.26l-9.38-9.37H640a320 320 0 0 0 201.12-568.91 32 32 0 1 0-40.25 49.76A255.07 255.07 0 0 1 896 512c0 141.16-114.84 256-256 256H429.25l9.38-9.37a32 32 0 0 0-45.26-45.26l-64 64a32 32 0 0 0 0 45.26l64 64a32 32 0 0 0 45.26 0z" fill="#313131" p-id="199929"></path></svg>