<?xml version="1.0" standalone="no"?><!DOCTYPE svg PUBLIC "-//W3C//DTD SVG 1.1//EN" "http://www.w3.org/Graphics/SVG/1.1/DTD/svg11.dtd"><svg t="1720334042022" class="icon" viewBox="0 0 1024 1024" version="1.1" xmlns="http://www.w3.org/2000/svg" p-id="39015" xmlns:xlink="http://www.w3.org/1999/xlink" width="128" height="128"><path d="M475.23271111 125.83367111c-156.67427555 0-366.19832889 15.85493333-376.83313778 152.92984889-5.24174222 67.71825778 35.95377778 104.74609778 69.06311112 134.50353778 35.25973333 31.69848889 56.55096889 53.26279111 49.9859911 95.30368-3.80928 24.48270222-53.52448 30.13745778-97.38922666 35.11751111-52.2752 5.94716445-101.65248 11.55868445-113.77436444 50.26702222-11.29813333 36.05162667 0.98759111 82.26133333 33.68504888 126.77688889 39.19872 53.3504 164.27008 177.43416889 478.35591112 177.43416889 397.45422222 0 503.49056-246.4768 503.49056-392.11349334 0.00113778-38.91655111-15.33383111-380.21916445-546.58389334-380.21916444z m43.09560889 727.88195556c-76.35626667 0-333.93550222-11.49155555-442.53411555-159.30026667-28.11790222-38.27484445-32.43690667-70.12693333-27.09731556-87.17653333 3.48387555-11.09105778 50.90759111-16.48412445 76.38926222-19.38204445 56.69205333-6.44664889 127.25361778-14.46570667 136.2944-72.42752 10.59043555-67.98904889-29.14986667-103.71527111-64.20252444-135.2192-31.13528889-27.97795555-58.01528889-52.13297778-54.45632-98.01728 5.83907555-75.30496 114.59925333-111.90840889 332.51328-111.90840889 200.50716445 0 344.6784 49.32266667 428.51214222 146.60266667 68.31445333 79.27580445 73.62104889 164.83555555 73.62104889 189.16579555 0 35.584-12.88192 347.66279111-459.03985778 347.66279112z" fill="#ffffff" p-id="39016"></path><path d="M313.91288889 222.44010667l-2.97301334-0.04323556c-48.40106667 0-86.87274667 28.38869333-87.59864888 64.64625778-0.72704 37.31000889 37.83111111 67.47932445 87.77272888 68.67399111l2.97301334 0.04209778c48.41244445 0 86.89436445-28.40007111 87.59978666-64.64739556 0.72817778-37.30887111-37.83111111-67.47818667-87.77272888-68.67171555z m0.17521778 88.86954666l-1.90919112-0.02275555c-26.94599111-0.65080889-44.55992889-14.49870222-44.3847111-23.36426667 0.16270222-8.59591111 17.05870222-21.07505778 43.14794666-21.07505778l1.91032889 0.02275556c26.94599111 0.64967111 44.55992889 14.49756445 44.38471111 23.37450666-0.16270222 8.58453333-17.05984 21.06481778-43.14908444 21.06481778zM513.94332445 666.94826667l-2.97415112-0.04323556c-48.40106667 0-86.87274667 28.38869333-87.59864888 64.64625778-0.72704 37.31000889 37.83111111 67.47932445 87.77272888 68.67399111l2.97301334 0.04209778c48.41244445 0 86.89436445-28.40007111 87.59978666-64.64739556 0.72817778-37.30773333-37.83111111-67.47704889-87.77272888-68.67171555z m0.17294222 88.86954666l-1.91032889-0.02275555c-26.94599111-0.65080889-44.55992889-14.49870222-44.38471111-23.36540445 0.16270222-8.59477333 17.05870222-21.07392 43.14794666-21.07392l1.91146667 0.02161778c26.94599111 0.65080889 44.55992889 14.49870222 44.38471111 23.37564444-0.16270222 8.58453333-17.05984 21.06481778-43.14908444 21.06481778zM736.19797333 611.38488889l-2.97415111-0.04323556c-48.40106667 0-86.87274667 28.38755555-87.59864889 64.64739556-0.72817778 37.30887111 37.83111111 67.47818667 87.77272889 68.67285333l2.97301333 0.04323556c48.41244445 0 86.89436445-28.40007111 87.59978667-64.64625778 0.72590222-37.31114667-37.83111111-67.48046222-87.77272889-68.67512889z m0.17294222 88.86840889l-1.91032888-0.02275556c-26.94599111-0.64967111-44.55992889-14.49756445-44.38471112-23.36426667 0.16270222-8.59477333 17.05870222-21.07505778 43.14794667-21.07505777l1.91032889 0.02275555c26.94599111 0.65080889 44.55992889 14.49870222 44.38471111 23.37564445-0.16156445 8.58453333-17.05870222 21.06368-43.14794667 21.06368zM836.21205333 433.58094222l-2.97415111-0.04323555c-48.40106667 0-86.87274667 28.38983111-87.59864889 64.64625778-0.72817778 37.31000889 37.83111111 67.47932445 87.77272889 68.6739911l2.97301333 0.04323556c48.41244445 0 86.89436445-28.40120889 87.59978667-64.64625778 0.72817778-37.31114667-37.83111111-67.48046222-87.77272889-68.67399111z m0.17294222 88.86954667l-1.91032888-0.02275556c-26.94599111-0.64967111-44.55992889-14.49756445-44.38471112-23.36426666 0.16270222-8.59477333 17.05870222-21.07505778 43.14794667-21.07505778l1.91032889 0.02275556c26.94599111 0.65080889 44.55992889 14.49870222 44.38471111 23.37564444-0.16156445 8.58339555-17.05870222 21.06368-43.14794667 21.06368z" fill="#ffffff" p-id="39017"></path></svg>