<?xml version="1.0" standalone="no"?><!DOCTYPE svg PUBLIC "-//W3C//DTD SVG 1.1//EN" "http://www.w3.org/Graphics/SVG/1.1/DTD/svg11.dtd"><svg t="1720334153670" class="icon" viewBox="0 0 1024 1024" version="1.1" xmlns="http://www.w3.org/2000/svg" p-id="41555" xmlns:xlink="http://www.w3.org/1999/xlink" width="128" height="128"><path d="M301.3 476.9c-13.7 0-24.8-11.1-24.8-24.8 0-13.7 11.1-24.8 24.8-24.8 13.4 0 24.8 11.4 24.8 24.8s-11.4 24.8-24.8 24.8zM406.3 476.9c-13.7 0-24.8-11.1-24.8-24.8 0-13.7 11.1-24.8 24.8-24.8 13.4 0 24.8 11.4 24.8 24.8s-11.4 24.8-24.8 24.8zM511.3 476.9c-13.7 0-24.8-11.1-24.8-24.8 0-13.7 11.1-24.8 24.8-24.8 13.4 0 24.8 11.4 24.8 24.8s-11.4 24.8-24.8 24.8zM616.2 476.9c-13.7 0-24.8-11.1-24.8-24.8 0-13.7 11.1-24.8 24.8-24.8 13.4 0 24.8 11.4 24.8 24.8 0.1 13.4-11.3 24.8-24.8 24.8zM721.2 476.9c-13.7 0-24.8-11.1-24.8-24.8 0-13.7 11.1-24.8 24.8-24.8 13.4 0 24.8 11.4 24.8 24.8s-11.3 24.8-24.8 24.8z" fill="#ffffff" p-id="41556"></path><path d="M353.8 597.7c-13.7 0-24.8-11.1-24.8-24.8 0-13.7 11.1-24.8 24.8-24.8 13.4 0 24.8 11.4 24.8 24.8 0 13.5-11.4 24.8-24.8 24.8zM458.8 597.7c-13.7 0-24.8-11.1-24.8-24.8 0-13.7 11.1-24.8 24.8-24.8 13.4 0 24.8 11.4 24.8 24.8 0 13.5-11.4 24.8-24.8 24.8zM563.7 597.7c-13.7 0-24.8-11.1-24.8-24.8 0-13.7 11.1-24.8 24.8-24.8 13.4 0 24.8 11.4 24.8 24.8 0.1 13.5-11.3 24.8-24.8 24.8zM668.7 597.7c-13.7 0-24.8-11.1-24.8-24.8 0-13.7 11.1-24.8 24.8-24.8 13.4 0 24.8 11.4 24.8 24.8 0 13.5-11.3 24.8-24.8 24.8z" fill="#ffffff" p-id="41557"></path><path d="M728.7 706.5H284.2c-55.7 0-104.1-33.9-115.2-88.4l-37.6-179.4c-6.1-29.9 1.5-60.5 20.8-84.1 19.3-23.6 47.8-37.1 78.3-37.1h562.9c30.4 0 58.8 13.4 78.1 36.9 19.3 23.5 26.9 54 21.1 83.7l-48.8 180c-10.7 54.3-59.2 88.4-115.1 88.4zM230.6 341.8c-23.1 0-44.8 10.3-59.5 28.2-14.6 17.9-20.4 41.2-15.8 63.9l37.6 179.4c8.8 43.3 47.2 69 91.4 69h444.4c44.4 0 82.9-25.9 91.5-69.5l48.8-180c4.3-21.9-1.5-45.1-16.2-62.9-14.7-17.8-36.3-28-59.3-28H230.6z" fill="#ffffff" p-id="41558"></path></svg>