<?xml version="1.0" standalone="no"?><!DOCTYPE svg PUBLIC "-//W3C//DTD SVG 1.1//EN" "http://www.w3.org/Graphics/SVG/1.1/DTD/svg11.dtd"><svg t="1720771819139" class="icon" viewBox="0 0 1024 1024" version="1.1" xmlns="http://www.w3.org/2000/svg" p-id="201903" xmlns:xlink="http://www.w3.org/1999/xlink" width="32" height="32"><path d="M469.333333 106.666667v810.666666a21.333333 21.333333 0 0 1-36.42 15.086667L225.833333 725.333333H53.333333a53.393333 53.393333 0 0 1-53.333333-53.333333V352a53.393333 53.393333 0 0 1 53.333333-53.333333h172.5l207.08-207.086667A21.333333 21.333333 0 0 1 469.333333 106.666667z m146.793334 296.2a21.333333 21.333333 0 0 0-3.526667 29.96 127.366667 127.366667 0 0 1 0 158.346666 21.333333 21.333333 0 0 0 33.493333 26.433334 170.733333 170.733333 0 0 0 0-211.213334 21.333333 21.333333 0 0 0-29.966666-3.526666z m212.213333-19.3A339.393333 339.393333 0 0 0 753.333333 270.666667a346.585333 346.585333 0 0 0-22.046666-20.213334 21.333333 21.333333 0 1 0-27.446667 32.666667c6.666667 5.586667 13.146667 11.553333 19.333333 17.726667C779.6 357.22 810.666667 432.22 810.666667 512s-31.066667 154.78-87.48 211.186667c-6.173333 6.173333-12.666667 12.14-19.333334 17.726666a21.333333 21.333333 0 1 0 27.446667 32.666667 346.585333 346.585333 0 0 0 22.046667-20.213333 341.706667 341.706667 0 0 0 74.98-369.793334z" fill="#313131" p-id="201904"></path></svg>